<svg 
 xmlns="http://www.w3.org/2000/svg"
 xmlns:xlink="http://www.w3.org/1999/xlink"
 width="805px" height="343px">
<path fill-rule="evenodd"  fill="rgb(32, 22, 0)"
 d="M757.516,128.454 C757.516,128.454 586.574,86.700 533.391,75.313 C480.209,63.926 413.731,88.599 413.731,88.599 C413.731,88.599 168.713,221.450 111.732,251.816 C54.751,282.181 12.965,282.181 1.568,248.020 C-9.828,213.858 43.355,183.492 75.644,160.718 C107.934,137.944 284.574,62.028 284.574,62.028 C284.574,62.028 349.153,31.663 398.536,10.786 C447.919,-10.091 512.498,8.888 512.498,8.888 L805.000,136.045 L757.516,128.454 ZM170.918,256.698 C171.028,257.764 171.249,258.572 172.352,258.719 C172.867,258.793 173.676,258.866 174.007,258.866 C174.228,258.866 174.301,258.977 174.301,259.087 C174.301,259.270 174.117,259.381 173.713,259.381 C171.690,259.381 169.373,259.270 169.190,259.270 C169.006,259.270 166.689,259.381 165.586,259.381 C165.181,259.381 164.998,259.307 164.998,259.087 C164.998,258.977 165.071,258.866 165.292,258.866 C165.623,258.866 166.064,258.793 166.395,258.719 C167.131,258.572 167.314,257.764 167.461,256.698 C167.645,255.155 167.645,252.253 167.645,248.725 L167.645,242.259 C167.645,236.526 167.645,235.498 167.572,234.322 C167.498,233.073 167.131,232.448 166.322,232.264 C165.917,232.154 165.439,232.118 165.181,232.118 C165.034,232.118 164.887,232.044 164.887,231.897 C164.887,231.677 165.071,231.603 165.476,231.603 C166.689,231.603 169.006,231.713 169.190,231.713 C169.373,231.713 171.690,231.603 172.793,231.603 C173.198,231.603 173.382,231.677 173.382,231.897 C173.382,232.044 173.235,232.118 173.088,232.118 C172.830,232.118 172.609,232.154 172.168,232.228 C171.175,232.411 170.881,233.036 170.808,234.322 C170.734,235.498 170.734,236.526 170.734,242.259 L170.734,248.725 C170.734,252.253 170.734,255.155 170.918,256.698 ZM156.839,275.757 C160.787,275.757 166.315,276.019 166.753,276.019 C168.859,276.019 172.281,275.757 176.317,275.757 C190.706,275.757 193.865,284.523 193.865,288.907 C193.865,296.096 189.741,300.392 185.617,304.688 C192.110,306.704 200.796,312.929 200.796,323.186 C200.796,332.567 193.426,342.299 178.423,342.299 C177.457,342.299 174.650,342.123 172.105,342.036 C169.561,341.860 167.104,341.773 166.753,341.773 C166.578,341.773 165.086,341.773 163.244,341.860 C161.489,341.860 159.471,342.036 158.155,342.036 C157.190,342.036 156.751,341.860 156.751,341.334 C156.751,341.071 156.926,340.808 157.453,340.808 C158.243,340.808 159.296,340.632 160.085,340.458 C161.840,340.107 162.279,338.178 162.630,335.636 C163.068,331.953 163.068,325.028 163.068,316.611 L163.068,301.181 C163.068,287.504 163.068,285.050 162.893,282.244 C162.717,279.263 162.015,277.860 159.120,277.247 C158.418,277.072 156.926,276.984 156.137,276.984 C155.786,276.984 155.435,276.809 155.435,276.458 C155.435,275.932 155.874,275.757 156.839,275.757 ZM170.088,312.403 C170.088,319.153 170.088,330.025 170.175,331.340 C170.439,335.636 170.439,336.863 173.158,338.178 C175.527,339.318 179.300,339.493 180.880,339.493 C185.617,339.493 193.251,336.951 193.251,327.044 C193.251,321.784 191.496,314.156 184.740,309.510 C181.757,307.493 179.563,307.230 177.457,306.967 C176.317,306.792 171.930,306.792 170.614,306.792 C170.263,306.792 170.088,306.967 170.088,307.406 L170.088,312.403 ZM170.088,303.109 C170.088,303.723 170.263,303.899 170.702,304.074 C171.228,304.162 172.807,304.425 176.054,304.425 C180.967,304.425 182.195,304.249 184.038,302.145 C185.881,300.041 187.197,296.885 187.197,293.290 C187.197,286.014 183.950,278.211 175.352,278.211 C174.386,278.211 172.544,278.299 171.140,278.650 C170.351,278.825 170.088,279.088 170.088,279.614 L170.088,303.109 ZM192.350,249.240 C188.599,245.308 184.965,241.487 183.972,240.384 L184.340,255.119 C184.413,257.691 184.707,258.462 185.584,258.683 C186.172,258.830 186.908,258.866 187.202,258.866 C187.349,258.866 187.459,258.977 187.459,259.123 C187.459,259.307 187.239,259.381 186.871,259.381 C185.038,259.381 183.751,259.270 183.457,259.270 C183.163,259.270 181.802,259.381 180.332,259.381 C180.001,259.381 179.817,259.344 179.817,259.123 C179.817,258.977 179.927,258.866 180.074,258.866 C180.332,258.866 180.920,258.830 181.398,258.683 C182.207,258.462 182.318,257.617 182.318,254.788 L182.318,236.894 C182.318,235.645 182.501,235.314 182.759,235.314 C183.126,235.314 183.678,235.939 184.009,236.269 C184.524,236.783 189.224,241.781 194.225,246.924 C197.418,250.231 200.875,253.943 201.868,254.972 L201.537,239.319 C201.500,237.298 201.316,236.600 200.323,236.416 C199.735,236.306 199.000,236.269 198.742,236.269 C198.522,236.269 198.485,236.086 198.485,235.975 C198.485,235.792 198.742,235.755 199.110,235.755 C200.580,235.755 202.125,235.828 202.493,235.828 C202.866,235.828 203.933,235.755 205.257,235.755 C205.588,235.755 205.845,235.792 205.845,235.975 C205.845,236.086 205.698,236.269 205.477,236.269 C205.330,236.269 205.073,236.269 204.705,236.343 C203.639,236.563 203.566,237.188 203.566,239.062 L203.492,257.360 C203.492,259.417 203.455,259.601 203.234,259.601 C202.903,259.601 202.566,259.344 200.764,257.691 C200.433,257.396 195.764,252.804 192.350,249.240 ZM209.749,235.314 C209.970,235.314 210.301,235.571 211.183,235.681 C212.102,235.792 213.353,235.828 213.721,235.828 L225.922,235.828 C226.983,235.828 227.718,235.755 228.233,235.681 C228.711,235.608 229.011,235.535 229.158,235.535 C229.305,235.535 229.305,235.718 229.305,235.902 C229.305,236.857 229.195,239.099 229.195,239.466 C229.195,239.723 229.048,239.870 228.895,239.870 C228.748,239.870 228.674,239.760 228.638,239.319 L228.601,238.988 C228.490,238.033 227.792,237.335 224.709,237.261 L220.670,237.188 L220.670,250.305 C220.670,253.318 220.670,255.780 220.817,257.066 C220.928,257.985 221.075,258.572 222.062,258.719 C222.503,258.793 223.238,258.866 223.532,258.866 C223.753,258.866 223.789,259.013 223.789,259.123 C223.789,259.270 223.642,259.381 223.275,259.381 C221.510,259.381 219.457,259.270 219.273,259.270 C219.126,259.270 216.883,259.381 215.926,259.381 C215.559,259.381 215.412,259.307 215.412,259.123 C215.412,259.013 215.485,258.903 215.669,258.903 C215.963,258.903 216.331,258.830 216.626,258.756 C217.287,258.609 217.471,257.985 217.582,257.066 C217.729,255.780 217.729,253.318 217.729,250.305 L217.729,237.188 L213.059,237.261 C211.036,237.298 210.264,237.518 209.786,238.253 C209.418,238.805 209.381,239.025 209.271,239.245 C209.197,239.503 209.087,239.539 208.940,239.539 C208.866,239.539 208.719,239.466 208.719,239.282 C208.719,238.952 209.381,236.159 209.418,235.902 C209.491,235.718 209.639,235.314 209.749,235.314 ZM242.844,258.132 C243.690,258.132 245.234,258.132 246.080,257.801 C246.926,257.433 247.367,256.882 247.551,255.633 C247.624,255.265 247.698,255.155 247.881,255.155 C248.065,255.155 248.102,255.413 248.102,255.633 C248.102,255.853 247.845,257.985 247.661,258.646 C247.440,259.454 247.109,259.454 245.859,259.454 C243.432,259.454 241.557,259.381 240.233,259.344 C238.873,259.270 238.027,259.270 237.549,259.270 C237.475,259.270 236.850,259.270 236.152,259.307 C235.527,259.344 234.791,259.381 234.276,259.381 C233.945,259.381 233.761,259.307 233.761,259.123 C233.761,259.013 233.835,258.866 234.019,258.866 C234.313,258.866 234.717,258.756 235.011,258.719 C235.637,258.609 235.710,257.985 235.857,257.066 C236.041,255.780 236.041,253.318 236.041,250.305 L236.041,244.794 C236.041,239.943 236.041,239.062 235.968,238.070 C235.894,237.004 235.710,236.490 234.644,236.343 C234.386,236.306 233.835,236.269 233.541,236.269 C233.430,236.269 233.283,236.122 233.283,236.012 C233.283,235.828 233.430,235.755 233.798,235.755 C235.269,235.755 237.365,235.828 237.549,235.828 C237.769,235.828 244.535,235.865 245.271,235.828 C245.896,235.792 246.484,235.681 246.742,235.645 C246.889,235.608 247.036,235.498 247.183,235.498 C247.293,235.498 247.330,235.645 247.330,235.792 C247.330,236.012 247.146,236.379 247.073,237.261 C247.036,237.555 246.962,238.952 246.889,239.319 C246.852,239.466 246.742,239.650 246.595,239.650 C246.411,239.650 246.337,239.503 246.337,239.245 C246.337,239.025 246.301,238.511 246.153,238.143 C245.933,237.629 245.602,237.408 243.837,237.188 C243.285,237.114 239.534,237.078 239.167,237.078 C239.020,237.078 238.983,237.188 238.983,237.408 L238.983,245.896 C238.983,246.116 238.983,246.227 239.167,246.227 C239.571,246.227 243.837,246.227 244.572,246.153 C245.344,246.080 245.823,246.043 246.153,245.712 C246.374,245.492 246.521,245.308 246.631,245.308 C246.742,245.308 246.815,245.382 246.815,245.565 C246.815,245.749 246.631,246.263 246.558,247.292 C246.484,247.917 246.411,249.093 246.411,249.313 C246.411,249.570 246.337,249.901 246.117,249.901 C245.970,249.901 245.896,249.791 245.896,249.607 C245.896,249.313 245.896,248.982 245.749,248.578 C245.639,248.138 245.344,247.770 244.094,247.623 C243.212,247.512 239.755,247.476 239.204,247.476 C239.020,247.476 238.983,247.586 238.983,247.697 L238.983,250.305 C238.983,251.371 238.946,255.008 238.983,255.633 C239.056,257.727 239.645,258.132 242.844,258.132 ZM214.571,285.663 C218.081,285.663 223.258,285.839 223.697,285.839 C224.486,285.839 230.979,285.663 233.348,285.663 C238.261,285.663 243.701,286.101 247.737,288.907 C249.667,290.310 253.089,293.904 253.089,299.077 C253.089,304.600 250.808,309.948 243.613,316.085 C249.931,323.976 255.283,330.726 259.757,335.373 C263.881,339.581 266.425,340.282 268.356,340.545 C269.847,340.808 270.637,340.808 271.076,340.808 C271.515,340.808 271.778,341.159 271.778,341.422 C271.778,341.860 271.339,342.036 269.936,342.036 L265.109,342.036 C260.722,342.036 258.792,341.597 256.862,340.545 C253.528,338.792 250.721,335.197 246.334,329.586 C243.087,325.554 239.665,320.731 237.998,318.715 C237.647,318.365 237.472,318.276 236.945,318.276 L227.118,318.102 C226.768,318.102 226.592,318.276 226.592,318.715 L226.592,320.468 C226.592,327.657 226.592,333.444 226.943,336.512 C227.206,338.704 227.645,340.107 230.014,340.458 C231.066,340.632 232.734,340.808 233.436,340.808 C233.962,340.808 234.050,341.159 234.050,341.422 C234.050,341.773 233.699,342.036 232.821,342.036 C228.610,342.036 223.697,341.773 223.346,341.773 C223.258,341.773 218.081,342.036 215.712,342.036 C214.922,342.036 214.484,341.860 214.484,341.422 C214.484,341.159 214.659,340.808 215.098,340.808 C215.800,340.808 216.765,340.632 217.467,340.458 C218.959,340.107 219.134,338.704 219.485,336.512 C219.924,333.444 219.924,327.570 219.924,320.381 L219.924,307.230 C219.924,295.658 219.924,293.554 219.748,291.187 C219.573,288.644 219.134,287.417 216.590,287.066 C215.976,286.978 214.659,286.891 213.957,286.891 C213.694,286.891 213.343,286.540 213.343,286.277 C213.343,285.839 213.694,285.663 214.571,285.663 ZM226.592,313.542 C226.592,313.981 226.768,314.244 227.118,314.507 C228.259,315.120 232.207,315.647 235.629,315.647 C237.472,315.647 239.577,315.559 241.420,314.332 C244.052,312.578 246.070,308.633 246.070,302.934 C246.070,293.641 240.981,288.293 232.734,288.293 C230.452,288.293 227.996,288.556 227.206,288.732 C226.855,288.907 226.592,289.170 226.592,289.609 L226.592,313.542 ZM298.357,236.416 C297.768,236.306 297.033,236.269 296.776,236.269 C296.555,236.269 296.518,236.086 296.518,235.975 C296.518,235.792 296.776,235.755 297.143,235.755 C298.614,235.755 300.159,235.828 300.526,235.828 C300.900,235.828 301.967,235.755 303.290,235.755 C303.621,235.755 303.879,235.792 303.879,235.975 C303.879,236.086 303.732,236.269 303.511,236.269 C303.364,236.269 303.106,236.269 302.739,236.343 C301.673,236.563 301.599,237.188 301.599,239.062 L301.525,257.360 C301.525,259.417 301.488,259.601 301.268,259.601 C300.937,259.601 300.600,259.344 298.798,257.691 C298.467,257.396 293.797,252.804 290.383,249.240 C286.633,245.308 282.998,241.487 282.006,240.384 L282.373,255.119 C282.447,257.691 282.741,258.462 283.617,258.683 C284.206,258.830 284.941,258.866 285.235,258.866 C285.383,258.866 285.493,258.977 285.493,259.123 C285.493,259.307 285.272,259.381 284.905,259.381 C283.072,259.381 281.785,259.270 281.491,259.270 C281.197,259.270 279.836,259.381 278.365,259.381 C278.149,259.381 278.004,259.359 277.923,259.287 C277.815,259.349 277.619,259.381 277.262,259.381 L275.239,259.381 C273.401,259.381 272.592,259.197 271.783,258.756 C270.386,258.021 269.209,256.514 267.371,254.163 C266.010,252.473 264.576,250.452 263.877,249.607 C263.730,249.460 263.657,249.423 263.436,249.423 L259.318,249.350 C259.171,249.350 259.097,249.423 259.097,249.607 L259.097,250.342 C259.097,253.355 259.097,255.780 259.244,257.066 C259.354,257.985 259.538,258.572 260.531,258.719 C260.972,258.793 261.671,258.866 261.965,258.866 C262.186,258.866 262.222,259.013 262.222,259.123 C262.222,259.270 262.075,259.381 261.708,259.381 C259.943,259.381 257.883,259.270 257.736,259.270 C257.700,259.270 255.530,259.381 254.537,259.381 C254.206,259.381 254.022,259.307 254.022,259.123 C254.022,259.013 254.096,258.866 254.280,258.866 C254.574,258.866 254.978,258.793 255.272,258.719 C255.898,258.572 255.972,257.985 256.119,257.066 C256.302,255.780 256.302,253.318 256.302,250.305 L256.302,244.794 C256.302,239.943 256.302,239.062 256.229,238.070 C256.155,237.004 255.972,236.490 254.905,236.343 C254.647,236.306 254.096,236.269 253.802,236.269 C253.691,236.269 253.544,236.122 253.544,236.012 C253.544,235.828 253.691,235.755 254.059,235.755 C255.530,235.755 257.700,235.828 257.883,235.828 C258.214,235.828 260.935,235.755 261.928,235.755 C263.988,235.755 266.268,235.939 267.959,237.114 C268.768,237.702 270.202,239.209 270.202,241.377 C270.202,243.691 269.246,245.933 266.231,248.505 C268.878,251.812 271.121,254.641 272.997,256.588 C274.725,258.352 275.792,258.646 276.600,258.756 C277.225,258.866 277.556,258.866 277.740,258.866 C277.820,258.866 277.882,258.897 277.931,258.937 C277.977,258.894 278.037,258.866 278.108,258.866 C278.365,258.866 278.954,258.830 279.431,258.683 C280.240,258.462 280.351,257.617 280.351,254.788 L280.351,236.894 C280.351,235.645 280.535,235.314 280.792,235.314 C281.160,235.314 281.711,235.939 282.042,236.269 C282.557,236.783 287.258,241.781 292.259,246.924 C295.452,250.231 298.908,253.943 299.901,254.972 L299.570,239.319 C299.534,237.298 299.350,236.600 298.357,236.416 ZM267.260,242.993 C267.260,239.099 265.127,236.857 261.671,236.857 C260.715,236.857 259.685,236.967 259.354,237.041 C259.207,237.114 259.097,237.224 259.097,237.408 L259.097,247.439 C259.097,247.623 259.171,247.733 259.318,247.844 C259.796,248.101 261.450,248.321 262.885,248.321 C263.657,248.321 264.539,248.284 265.311,247.770 C266.415,247.035 267.260,245.382 267.260,242.993 ZM301.960,284.611 C319.333,284.611 332.494,295.219 332.494,312.578 C332.494,329.235 320.123,343.000 301.522,343.000 C280.376,343.000 271.339,327.132 271.339,313.718 C271.339,301.707 280.640,284.611 301.960,284.611 ZM303.715,339.931 C310.647,339.931 324.597,336.249 324.597,314.682 C324.597,296.797 313.718,287.417 301.522,287.417 C288.624,287.417 279.324,295.482 279.324,311.702 C279.324,329.060 289.765,339.931 303.715,339.931 ZM311.644,258.866 L311.938,258.866 C312.195,258.866 312.269,258.977 312.269,259.123 C312.269,259.307 312.085,259.381 311.791,259.381 C311.019,259.381 309.253,259.270 308.886,259.270 C308.555,259.270 306.937,259.381 305.613,259.381 C305.209,259.381 304.988,259.307 304.988,259.123 C304.988,258.977 305.135,258.866 305.282,258.866 C305.503,258.866 305.981,258.830 306.238,258.793 C307.709,258.609 308.334,257.507 308.959,255.927 L316.571,236.379 C316.975,235.351 317.122,235.167 317.343,235.167 C317.674,235.167 317.785,235.608 318.116,236.306 C318.704,237.629 323.888,250.525 325.874,255.265 C327.051,258.058 327.934,258.462 328.632,258.683 C329.110,258.830 329.588,258.866 329.919,258.866 C330.103,258.866 330.323,258.940 330.323,259.123 C330.323,259.307 329.956,259.381 329.588,259.381 C329.110,259.381 326.720,259.381 324.477,259.307 C323.852,259.270 323.337,259.270 323.337,259.087 C323.337,258.940 323.410,258.940 323.557,258.866 C323.741,258.793 324.072,258.536 323.852,258.021 L320.947,250.856 C320.873,250.709 320.836,250.672 320.652,250.672 L313.188,250.672 C313.041,250.672 312.930,250.746 312.857,250.930 L311.019,255.927 C310.724,256.698 310.540,257.470 310.540,258.021 C310.540,258.646 311.092,258.866 311.644,258.866 ZM313.629,249.387 L320.174,249.387 C320.322,249.387 320.322,249.313 320.285,249.166 L317.086,240.605 C316.902,240.127 316.718,240.127 316.534,240.605 L313.519,249.166 C313.482,249.313 313.519,249.387 313.629,249.387 ZM334.295,258.903 C334.589,258.903 334.957,258.830 335.251,258.756 C335.913,258.609 336.097,257.985 336.207,257.066 C336.354,255.780 336.354,253.318 336.354,250.305 L336.354,237.188 L331.684,237.261 C329.662,237.298 328.890,237.518 328.412,238.253 C328.043,238.805 328.007,239.025 327.897,239.245 C327.823,239.503 327.713,239.539 327.565,239.539 C327.492,239.539 327.345,239.466 327.345,239.282 C327.345,238.952 328.007,236.159 328.043,235.902 C328.117,235.718 328.265,235.314 328.375,235.314 C328.596,235.314 328.926,235.571 329.809,235.681 C330.728,235.792 331.978,235.828 332.346,235.828 L344.548,235.828 C345.608,235.828 346.344,235.755 346.858,235.681 C347.337,235.608 347.637,235.535 347.784,235.535 C347.931,235.535 347.931,235.718 347.931,235.902 C347.931,236.857 347.821,239.099 347.821,239.466 C347.821,239.723 347.674,239.870 347.521,239.870 C347.374,239.870 347.300,239.760 347.263,239.319 L347.227,238.988 C347.116,238.033 346.417,237.335 343.335,237.261 L339.296,237.188 L339.296,250.305 C339.296,253.318 339.296,255.780 339.443,257.066 C339.553,257.985 339.700,258.572 340.687,258.719 C341.128,258.793 341.864,258.866 342.158,258.866 C342.378,258.866 342.415,259.013 342.415,259.123 C342.415,259.270 342.268,259.381 341.900,259.381 C340.136,259.381 338.082,259.270 337.898,259.270 C337.751,259.270 335.508,259.381 334.552,259.381 C334.184,259.381 334.037,259.307 334.037,259.123 C334.037,259.013 334.111,258.903 334.295,258.903 ZM357.756,257.066 C357.866,257.985 357.976,258.572 358.932,258.719 C359.410,258.793 360.109,258.866 360.403,258.866 C360.587,258.866 360.660,259.013 360.660,259.123 C360.660,259.270 360.513,259.381 360.146,259.381 C358.344,259.381 356.248,259.270 356.101,259.270 C355.917,259.270 353.894,259.381 352.901,259.381 C352.571,259.381 352.387,259.307 352.387,259.123 C352.387,259.013 352.460,258.866 352.644,258.866 C352.938,258.866 353.343,258.793 353.637,258.719 C354.262,258.572 354.373,257.985 354.483,257.066 C354.630,255.780 354.667,253.318 354.667,250.305 L354.667,244.794 C354.667,239.943 354.667,239.062 354.593,238.070 C354.520,237.004 354.262,236.526 353.563,236.379 C353.196,236.306 352.791,236.269 352.571,236.269 C352.423,236.269 352.313,236.122 352.313,236.012 C352.313,235.828 352.460,235.755 352.828,235.755 C353.894,235.755 355.917,235.828 356.101,235.828 C356.248,235.828 358.344,235.755 359.337,235.755 C359.704,235.755 359.851,235.828 359.851,236.012 C359.851,236.122 359.704,236.269 359.594,236.269 C359.373,236.269 359.153,236.269 358.785,236.343 C357.903,236.526 357.719,236.967 357.645,238.070 C357.609,239.062 357.609,239.943 357.609,244.794 L357.609,250.305 C357.609,253.318 357.609,255.780 357.756,257.066 ZM377.428,259.785 C368.566,259.785 364.779,253.134 364.779,247.512 C364.779,242.479 368.677,235.314 377.612,235.314 C384.893,235.314 390.409,239.760 390.409,247.035 C390.409,254.016 385.224,259.785 377.428,259.785 ZM377.428,236.490 C372.023,236.490 368.125,239.870 368.125,246.668 C368.125,253.943 372.501,258.499 378.348,258.499 C381.253,258.499 387.099,256.956 387.099,247.917 C387.099,240.421 382.540,236.490 377.428,236.490 ZM414.519,236.416 C413.931,236.306 413.195,236.269 412.938,236.269 C412.717,236.269 412.681,236.086 412.681,235.975 C412.681,235.792 412.938,235.755 413.306,235.755 C414.776,235.755 416.321,235.828 416.689,235.828 C417.062,235.828 418.129,235.755 419.453,235.755 C419.784,235.755 420.041,235.792 420.041,235.975 C420.041,236.086 419.894,236.269 419.673,236.269 C419.526,236.269 419.269,236.269 418.901,236.343 C417.835,236.563 417.761,237.188 417.761,239.062 L417.688,257.360 C417.688,259.417 417.651,259.601 417.430,259.601 C417.099,259.601 416.762,259.344 414.960,257.691 C414.629,257.396 409.959,252.804 406.546,249.240 C402.795,245.308 399.161,241.487 398.168,240.384 L398.536,255.119 C398.609,257.691 398.903,258.462 399.780,258.683 C400.368,258.830 401.104,258.866 401.398,258.866 C401.545,258.866 401.655,258.977 401.655,259.123 C401.655,259.307 401.435,259.381 401.067,259.381 C399.234,259.381 397.947,259.270 397.653,259.270 C397.359,259.270 395.998,259.381 394.528,259.381 C394.197,259.381 394.013,259.344 394.013,259.123 C394.013,258.977 394.123,258.866 394.270,258.866 C394.528,258.866 395.116,258.830 395.594,258.683 C396.403,258.462 396.513,257.617 396.513,254.788 L396.513,236.894 C396.513,235.645 396.697,235.314 396.955,235.314 C397.322,235.314 397.874,235.939 398.205,236.269 C398.719,236.783 403.420,241.781 408.421,246.924 C411.614,250.231 415.070,253.943 416.064,254.972 L415.733,239.319 C415.696,237.298 415.512,236.600 414.519,236.416 ZM337.320,285.663 C341.356,285.663 345.655,285.839 346.445,285.839 C347.147,285.839 350.656,285.663 354.517,285.663 C355.570,285.663 355.921,285.839 355.921,286.189 C355.921,286.628 355.482,286.891 355.131,286.891 C354.517,286.891 353.289,286.891 352.411,287.329 C351.884,287.504 351.358,287.942 351.358,288.907 C351.358,289.871 351.973,292.502 352.850,295.760 C354.078,300.509 361.975,327.891 362.940,330.974 L363.115,330.974 L379.259,289.273 C380.400,286.277 380.926,285.839 381.365,285.839 C381.891,285.839 382.506,286.803 383.471,289.360 L398.562,330.989 L398.913,330.989 C400.843,324.852 407.775,303.285 410.495,293.729 C411.284,290.924 411.372,290.047 411.372,289.082 C411.372,287.768 410.758,286.891 407.248,286.891 C406.809,286.891 406.546,286.453 406.546,286.189 C406.546,285.839 406.897,285.663 407.863,285.663 C411.811,285.663 415.057,285.839 415.759,285.839 C416.285,285.839 419.620,285.663 421.988,285.663 C422.691,285.663 423.042,285.839 423.042,286.101 C423.042,286.453 422.866,286.891 422.339,286.891 C422.076,286.891 420.585,286.978 419.707,287.241 C417.426,288.031 416.198,291.011 414.706,295.132 C411.284,304.600 403.651,328.271 400.580,336.600 C398.562,342.123 398.124,343.000 397.246,343.000 C396.456,343.000 395.754,342.036 394.702,339.143 L379.610,298.375 C376.978,304.863 366.537,332.128 363.729,339.055 C362.414,342.211 361.887,343.000 361.009,343.000 C360.220,343.000 359.606,342.211 358.027,337.126 L344.339,292.940 C343.111,288.995 342.321,288.031 340.303,287.329 C339.250,286.978 337.320,286.891 336.793,286.891 C336.442,286.891 336.091,286.628 336.091,286.189 C336.091,285.839 336.618,285.663 337.320,285.663 ZM421.150,259.123 C421.150,258.977 421.297,258.866 421.445,258.866 C421.665,258.866 422.143,258.830 422.400,258.793 C423.872,258.609 424.496,257.507 425.122,255.927 L432.733,236.379 C433.137,235.351 433.285,235.167 433.505,235.167 C433.837,235.167 433.947,235.608 434.278,236.306 C434.866,237.629 440.051,250.525 442.037,255.265 C443.213,258.058 444.096,258.462 444.795,258.683 C445.272,258.830 445.750,258.866 446.081,258.866 C446.265,258.866 446.486,258.940 446.486,259.123 C446.486,259.307 446.118,259.381 445.750,259.381 C445.272,259.381 442.882,259.381 440.639,259.307 C440.014,259.270 439.499,259.270 439.499,259.087 C439.499,258.940 439.573,258.940 439.720,258.866 C439.904,258.793 440.234,258.536 440.014,258.021 L437.109,250.856 C437.035,250.709 436.999,250.672 436.815,250.672 L429.350,250.672 C429.203,250.672 429.093,250.746 429.019,250.930 L427.181,255.927 C426.886,256.698 426.703,257.470 426.703,258.021 C426.703,258.646 427.255,258.866 427.806,258.866 L428.100,258.866 C428.357,258.866 428.431,258.977 428.431,259.123 C428.431,259.307 428.247,259.381 427.953,259.381 C427.181,259.381 425.416,259.270 425.048,259.270 C424.717,259.270 423.099,259.381 421.775,259.381 C421.371,259.381 421.150,259.307 421.150,259.123 ZM429.791,249.387 L436.337,249.387 C436.484,249.387 436.484,249.313 436.447,249.166 L433.248,240.605 C433.064,240.127 432.880,240.127 432.696,240.605 L429.681,249.166 C429.644,249.313 429.681,249.387 429.791,249.387 ZM448.508,235.755 C449.979,235.755 452.002,235.828 452.186,235.828 C452.333,235.828 454.760,235.755 455.752,235.755 C456.083,235.755 456.267,235.828 456.267,236.012 C456.267,236.122 456.120,236.232 456.010,236.232 C455.789,236.232 455.311,236.269 454.944,236.306 C453.988,236.490 453.804,236.967 453.730,238.070 C453.694,239.062 453.694,239.943 453.694,244.794 L453.694,250.378 C453.694,254.972 453.767,256.845 454.355,257.396 C454.870,257.911 456.120,258.132 458.657,258.132 C460.349,258.132 461.783,258.095 462.555,257.176 C462.960,256.698 463.217,256.037 463.327,255.413 C463.364,255.192 463.475,255.008 463.659,255.008 C463.806,255.008 463.879,255.155 463.879,255.486 C463.879,255.817 463.659,257.691 463.401,258.609 C463.180,259.344 463.070,259.454 461.342,259.454 C459.025,259.454 457.224,259.417 455.716,259.344 C454.245,259.307 453.142,259.270 452.186,259.270 C452.038,259.270 451.487,259.270 450.862,259.307 C450.200,259.344 449.501,259.381 448.986,259.381 C448.656,259.381 448.472,259.307 448.472,259.123 C448.472,259.013 448.545,258.866 448.729,258.866 C449.023,258.866 449.427,258.793 449.722,258.719 C450.347,258.572 450.421,257.985 450.568,257.066 C450.752,255.780 450.752,253.318 450.752,250.305 L450.752,244.794 C450.752,239.943 450.752,239.062 450.678,238.070 C450.605,237.004 450.421,236.490 449.354,236.343 C449.097,236.306 448.545,236.269 448.251,236.269 C448.141,236.269 447.994,236.122 447.994,236.012 C447.994,235.828 448.141,235.755 448.508,235.755 ZM483.221,258.866 L483.589,258.866 C483.846,258.866 483.957,258.940 483.957,259.087 C483.957,259.307 483.736,259.381 483.405,259.381 C482.523,259.381 480.941,259.270 480.537,259.270 C480.132,259.270 478.110,259.381 476.382,259.381 C475.904,259.381 475.683,259.307 475.683,259.087 C475.683,258.940 475.830,258.866 476.014,258.866 C476.272,258.866 476.786,258.830 477.080,258.793 C478.772,258.572 479.507,257.176 480.169,255.339 L488.517,232.522 C488.958,231.309 489.105,231.089 489.325,231.089 C489.546,231.089 489.693,231.272 490.134,232.411 C490.686,233.807 496.459,248.982 498.703,254.567 C500.026,257.838 501.092,258.426 501.865,258.646 C502.416,258.830 502.968,258.866 503.336,258.866 C503.556,258.866 503.703,258.903 503.703,259.087 C503.703,259.307 503.372,259.381 502.968,259.381 C502.416,259.381 499.732,259.381 497.195,259.307 C496.496,259.270 496.092,259.270 496.092,259.050 C496.092,258.903 496.202,258.830 496.349,258.793 C496.569,258.719 496.790,258.389 496.569,257.801 L493.150,248.762 C493.076,248.615 493.003,248.542 492.819,248.542 L484.913,248.542 C484.729,248.542 484.618,248.652 484.545,248.836 L482.339,255.339 C482.008,256.257 481.824,257.139 481.824,257.801 C481.824,258.536 482.596,258.866 483.221,258.866 ZM485.317,247.219 L492.341,247.219 C492.525,247.219 492.525,247.108 492.488,246.961 L488.995,237.041 C488.811,236.490 488.627,236.490 488.443,237.041 L485.207,246.961 C485.134,247.145 485.207,247.219 485.317,247.219 ZM448.837,340.808 C449.451,340.808 450.679,340.721 451.381,340.632 C455.417,340.107 457.172,336.775 458.751,332.392 L478.668,277.948 C479.721,275.055 480.072,274.529 480.598,274.529 C481.125,274.529 481.475,274.967 482.529,277.685 C483.845,281.017 497.620,317.225 502.972,330.550 C506.131,338.353 508.675,339.756 510.517,340.282 C511.834,340.721 513.150,340.808 514.027,340.808 C514.553,340.808 514.904,340.896 514.904,341.334 C514.904,341.860 514.115,342.036 513.150,342.036 C511.834,342.036 505.429,342.036 499.374,341.860 C497.708,341.773 496.742,341.773 496.742,341.246 C496.742,340.896 497.006,340.721 497.357,340.632 C497.883,340.458 498.410,339.668 497.883,338.266 L489.724,316.698 C489.548,316.348 489.372,316.173 488.934,316.173 L470.070,316.173 C469.631,316.173 469.368,316.436 469.192,316.874 L463.928,332.392 C463.138,334.583 462.700,336.688 462.700,338.266 C462.700,340.019 464.542,340.808 466.033,340.808 L466.911,340.808 C467.525,340.808 467.788,340.983 467.788,341.334 C467.788,341.860 467.262,342.036 466.472,342.036 C464.366,342.036 460.594,341.773 459.629,341.773 C458.663,341.773 453.838,342.036 449.714,342.036 C448.573,342.036 448.047,341.860 448.047,341.334 C448.047,340.983 448.398,340.808 448.837,340.808 ZM471.035,313.017 L487.793,313.017 C488.232,313.017 488.232,312.753 488.144,312.403 L479.809,288.732 C479.370,287.417 478.931,287.417 478.493,288.732 L470.771,312.403 C470.596,312.841 470.771,313.017 471.035,313.017 ZM505.726,258.940 C505.285,258.719 505.248,258.609 505.248,257.764 C505.248,256.221 505.395,254.972 505.432,254.457 C505.432,254.126 505.505,253.943 505.689,253.943 C505.873,253.943 505.983,254.053 505.983,254.310 C505.983,254.567 505.983,255.008 506.094,255.449 C506.608,257.727 509.035,258.536 511.205,258.536 C514.404,258.536 516.059,256.735 516.059,254.384 C516.059,252.142 514.845,251.077 511.977,248.946 L510.506,247.844 C507.013,245.235 505.873,243.324 505.873,241.156 C505.873,237.482 508.778,235.277 513.043,235.277 C514.330,235.277 515.617,235.461 516.389,235.681 C517.015,235.828 517.272,235.828 517.529,235.828 C517.787,235.828 517.861,235.865 517.861,236.049 C517.861,236.196 517.713,237.219 517.713,239.350 C517.713,239.827 517.676,240.048 517.456,240.017 C517.235,240.017 517.198,239.870 517.162,239.613 C517.125,239.245 516.867,238.401 516.684,238.070 C516.463,237.702 515.397,236.526 512.492,236.526 C510.138,236.526 508.190,237.702 508.190,239.907 C508.190,241.891 509.182,243.030 512.381,245.198 L513.301,245.823 C517.235,248.505 518.596,250.672 518.596,253.355 C518.596,255.192 517.897,257.176 515.581,258.683 C514.220,259.564 512.198,259.785 510.433,259.785 C508.925,259.785 507.049,259.564 505.726,258.940 ZM532.569,245.823 C536.504,248.505 537.865,250.672 537.865,253.355 C537.865,255.192 537.166,257.176 534.849,258.683 C533.488,259.564 531.466,259.785 529.701,259.785 C528.194,259.785 526.318,259.564 524.994,258.940 C524.553,258.719 524.516,258.609 524.516,257.764 C524.516,256.221 524.663,254.972 524.700,254.457 C524.700,254.126 524.774,253.943 524.958,253.943 C525.141,253.943 525.252,254.053 525.252,254.310 C525.252,254.567 525.252,255.008 525.362,255.449 C525.877,257.727 528.304,258.536 530.474,258.536 C533.672,258.536 535.327,256.735 535.327,254.384 C535.327,252.142 534.114,251.077 531.246,248.946 L529.774,247.844 C526.281,245.235 525.141,243.324 525.141,241.156 C525.141,237.482 528.046,235.277 532.312,235.277 C533.599,235.277 534.886,235.461 535.658,235.681 C536.283,235.828 536.541,235.828 536.798,235.828 C537.055,235.828 537.129,235.865 537.129,236.049 C537.129,236.196 536.982,237.219 536.982,239.350 C536.982,239.827 536.945,240.048 536.724,240.017 C536.504,240.017 536.467,239.870 536.430,239.613 C536.393,239.245 536.136,238.401 535.952,238.070 C535.732,237.702 534.665,236.526 531.760,236.526 C529.407,236.526 527.458,237.702 527.458,239.907 C527.458,241.891 528.451,243.030 531.650,245.198 L532.569,245.823 ZM520.081,285.663 C523.591,285.663 528.768,285.839 529.206,285.839 C529.996,285.839 536.488,285.663 538.858,285.663 C543.771,285.663 549.211,286.101 553.247,288.907 C555.177,290.310 558.599,293.904 558.599,299.077 C558.599,304.600 556.318,309.948 549.123,316.085 C555.440,323.976 560.792,330.726 565.267,335.373 C569.391,339.581 571.935,340.282 573.866,340.545 C575.357,340.808 576.147,340.808 576.586,340.808 C577.025,340.808 577.287,341.159 577.287,341.422 C577.287,341.860 576.849,342.036 575.445,342.036 L570.619,342.036 C566.232,342.036 564.302,341.597 562.372,340.545 C559.038,338.792 556.230,335.197 551.843,329.586 C548.597,325.554 545.175,320.731 543.508,318.715 C543.157,318.365 542.982,318.276 542.455,318.276 L532.628,318.102 C532.277,318.102 532.101,318.276 532.101,318.715 L532.101,320.468 C532.101,327.657 532.101,333.444 532.452,336.512 C532.716,338.704 533.155,340.107 535.524,340.458 C536.576,340.632 538.244,340.808 538.946,340.808 C539.472,340.808 539.560,341.159 539.560,341.422 C539.560,341.773 539.209,342.036 538.331,342.036 C534.120,342.036 529.206,341.773 528.855,341.773 C528.768,341.773 523.591,342.036 521.222,342.036 C520.432,342.036 519.994,341.860 519.994,341.422 C519.994,341.159 520.169,340.808 520.608,340.808 C521.310,340.808 522.275,340.632 522.977,340.458 C524.468,340.107 524.644,338.704 524.995,336.512 C525.433,333.444 525.433,327.570 525.433,320.381 L525.433,307.230 C525.433,295.658 525.433,293.554 525.258,291.187 C525.083,288.644 524.644,287.417 522.100,287.066 C521.485,286.978 520.169,286.891 519.467,286.891 C519.204,286.891 518.853,286.540 518.853,286.277 C518.853,285.839 519.204,285.663 520.081,285.663 ZM532.101,313.542 C532.101,313.981 532.277,314.244 532.628,314.507 C533.769,315.120 537.717,315.647 541.139,315.647 C542.982,315.647 545.087,315.559 546.930,314.332 C549.562,312.578 551.580,308.633 551.580,302.934 C551.580,293.641 546.491,288.293 538.244,288.293 C535.962,288.293 533.506,288.556 532.716,288.732 C532.365,288.907 532.101,289.170 532.101,289.609 L532.101,313.542 ZM555.956,259.785 C547.094,259.785 543.307,253.134 543.307,247.512 C543.307,242.479 547.205,235.314 556.140,235.314 C563.421,235.314 568.937,239.760 568.937,247.035 C568.937,254.016 563.752,259.785 555.956,259.785 ZM555.956,236.490 C550.551,236.490 546.653,239.870 546.653,246.668 C546.653,253.943 551.029,258.499 556.876,258.499 C559.781,258.499 565.627,256.956 565.627,247.917 C565.627,240.421 561.068,236.490 555.956,236.490 ZM587.838,258.242 C590.265,258.242 591.882,258.058 593.170,256.772 C593.868,256.074 594.309,254.751 594.420,254.163 C594.493,253.832 594.530,253.722 594.751,253.722 C594.898,253.722 595.045,253.943 595.045,254.163 C595.045,254.384 594.603,257.102 594.273,258.168 C594.089,258.756 594.015,258.866 593.464,259.087 C592.140,259.601 589.713,259.785 587.617,259.785 C582.763,259.785 579.491,258.646 576.953,256.441 C573.791,253.722 573.019,250.158 573.019,247.182 C573.019,245.088 573.791,241.450 576.659,238.658 C578.608,236.783 581.550,235.314 586.514,235.314 C587.801,235.314 589.640,235.424 591.221,235.681 C592.434,235.902 593.464,236.122 594.530,236.159 C594.861,236.159 594.934,236.306 594.934,236.490 C594.934,236.747 594.861,237.114 594.787,238.253 C594.751,239.282 594.751,241.009 594.714,241.450 C594.677,241.928 594.530,242.112 594.346,242.112 C594.126,242.112 594.089,241.891 594.089,241.450 C594.089,240.237 593.574,238.988 592.729,238.327 C591.588,237.371 589.235,236.600 586.367,236.600 C582.211,236.600 580.226,237.702 579.086,238.768 C576.696,240.973 576.181,243.765 576.181,246.924 C576.181,252.914 580.924,258.242 587.838,258.242 ZM605.819,257.066 C605.929,257.985 606.040,258.572 606.996,258.719 C607.474,258.793 608.172,258.866 608.466,258.866 C608.650,258.866 608.724,259.013 608.724,259.123 C608.724,259.270 608.577,259.381 608.209,259.381 C606.407,259.381 604.311,259.270 604.164,259.270 C603.981,259.270 601.958,259.381 600.965,259.381 C600.634,259.381 600.450,259.307 600.450,259.123 C600.450,259.013 600.524,258.866 600.708,258.866 C601.002,258.866 601.406,258.793 601.700,258.719 C602.326,258.572 602.436,257.985 602.547,257.066 C602.694,255.780 602.730,253.318 602.730,250.305 L602.730,244.794 C602.730,239.943 602.730,239.062 602.657,238.070 C602.583,237.004 602.326,236.526 601.627,236.379 C601.259,236.306 600.855,236.269 600.634,236.269 C600.487,236.269 600.377,236.122 600.377,236.012 C600.377,235.828 600.524,235.755 600.892,235.755 C601.958,235.755 603.981,235.828 604.164,235.828 C604.311,235.828 606.407,235.755 607.400,235.755 C607.768,235.755 607.915,235.828 607.915,236.012 C607.915,236.122 607.768,236.269 607.658,236.269 C607.437,236.269 607.216,236.269 606.849,236.343 C605.966,236.526 605.783,236.967 605.709,238.070 C605.672,239.062 605.672,239.943 605.672,244.794 L605.672,250.305 C605.672,253.318 605.672,255.780 605.819,257.066 ZM579.042,289.258 C574.217,289.346 572.374,289.871 571.233,291.625 C570.356,292.940 570.268,293.466 570.005,293.992 C569.830,294.605 569.567,294.693 569.216,294.693 C569.040,294.693 568.689,294.518 568.689,294.080 C568.689,293.290 570.268,286.628 570.356,286.014 C570.532,285.576 570.883,284.611 571.146,284.611 C571.672,284.611 572.462,285.225 574.568,285.488 C576.761,285.751 579.744,285.839 580.622,285.839 L609.736,285.839 C612.266,285.839 614.021,285.663 615.250,285.488 C616.390,285.313 617.107,285.137 617.458,285.137 C617.809,285.137 617.809,285.576 617.809,286.014 C617.809,288.293 617.545,293.641 617.545,294.518 C617.545,295.132 617.194,295.482 616.829,295.482 C616.478,295.482 616.302,295.219 616.215,294.167 L616.127,293.379 C615.864,291.099 614.196,289.433 606.841,289.258 L597.204,289.082 L597.204,320.381 C597.204,327.570 597.204,333.444 597.556,336.512 C597.818,338.704 598.170,340.107 600.524,340.458 C601.577,340.632 603.332,340.808 604.034,340.808 C604.560,340.808 604.648,341.159 604.648,341.422 C604.648,341.773 604.297,342.036 603.419,342.036 C599.208,342.036 594.309,341.773 593.870,341.773 C593.519,341.773 588.167,342.036 585.886,342.036 C585.009,342.036 584.658,341.860 584.658,341.422 C584.658,341.159 584.833,340.896 585.272,340.896 C585.974,340.896 586.851,340.721 587.553,340.545 C589.133,340.194 589.571,338.704 589.834,336.512 C590.185,333.444 590.185,327.570 590.185,320.381 L590.185,289.082 L579.042,289.258 ZM615.931,258.021 C615.931,258.646 616.483,258.866 617.034,258.866 L617.329,258.866 C617.586,258.866 617.659,258.977 617.659,259.123 C617.659,259.307 617.476,259.381 617.182,259.381 C616.409,259.381 614.644,259.270 614.277,259.270 C613.946,259.270 612.327,259.381 611.004,259.381 C610.599,259.381 610.379,259.307 610.379,259.123 C610.379,258.977 610.526,258.866 610.673,258.866 C610.894,258.866 611.372,258.830 611.629,258.793 C613.100,258.609 613.725,257.507 614.350,255.927 L621.962,236.379 C622.366,235.351 622.513,235.167 622.734,235.167 C623.065,235.167 623.175,235.608 623.506,236.306 C624.095,237.629 629.279,250.525 631.265,255.265 C632.442,258.058 633.324,258.462 634.023,258.683 C634.501,258.830 634.979,258.866 635.310,258.866 C635.494,258.866 635.714,258.940 635.714,259.123 C635.714,259.307 635.347,259.381 634.979,259.381 C634.501,259.381 632.111,259.381 629.868,259.307 C629.242,259.270 628.728,259.270 628.728,259.087 C628.728,258.940 628.801,258.940 628.948,258.866 C629.132,258.793 629.463,258.536 629.242,258.021 L626.337,250.856 C626.264,250.709 626.227,250.672 626.043,250.672 L618.579,250.672 C618.432,250.672 618.321,250.746 618.248,250.930 L616.409,255.927 C616.115,256.698 615.931,257.470 615.931,258.021 ZM619.020,249.387 L625.565,249.387 C625.712,249.387 625.712,249.313 625.676,249.166 L622.476,240.605 C622.293,240.127 622.109,240.127 621.925,240.605 L618.910,249.166 C618.873,249.313 618.910,249.387 619.020,249.387 ZM633.705,291.187 C633.529,288.644 632.915,287.504 631.248,287.154 C630.370,286.978 629.405,286.891 628.878,286.891 C628.528,286.891 628.264,286.540 628.264,286.277 C628.264,285.839 628.615,285.663 629.493,285.663 C632.037,285.663 636.863,285.839 637.302,285.839 C637.653,285.839 642.654,285.663 645.023,285.663 C645.900,285.663 646.251,285.839 646.251,286.277 C646.251,286.540 645.900,286.891 645.637,286.891 C645.111,286.891 644.584,286.891 643.706,287.066 C641.601,287.504 641.162,288.556 640.987,291.187 C640.899,293.554 640.899,295.658 640.899,307.230 L640.899,320.381 C640.899,327.570 640.899,333.444 641.250,336.512 C641.513,338.704 641.776,340.107 644.057,340.458 C645.198,340.632 646.865,340.808 647.567,340.808 C648.006,340.808 648.181,341.159 648.181,341.422 C648.181,341.773 647.830,342.036 646.953,342.036 C642.654,342.036 637.653,341.773 637.302,341.773 C636.863,341.773 632.037,342.036 629.669,342.036 C628.878,342.036 628.440,341.860 628.440,341.422 C628.440,341.159 628.615,340.808 629.054,340.808 C629.756,340.808 630.721,340.632 631.423,340.458 C632.915,340.107 633.178,338.704 633.441,336.512 C633.792,333.444 633.880,327.570 633.880,320.381 L633.880,307.230 C633.880,295.658 633.880,293.554 633.705,291.187 ZM644.687,250.305 C644.687,253.318 644.687,255.780 644.834,257.066 C644.944,257.985 645.091,258.572 646.078,258.719 C646.519,258.793 647.254,258.866 647.548,258.866 C647.769,258.866 647.806,259.013 647.806,259.123 C647.806,259.270 647.659,259.381 647.291,259.381 C645.526,259.381 643.473,259.270 643.289,259.270 C643.142,259.270 640.899,259.381 639.943,259.381 C639.575,259.381 639.428,259.307 639.428,259.123 C639.428,259.013 639.502,258.903 639.686,258.903 C639.980,258.903 640.348,258.830 640.642,258.756 C641.304,258.609 641.488,257.985 641.598,257.066 C641.745,255.780 641.745,253.318 641.745,250.305 L641.745,237.188 L637.075,237.261 C635.052,237.298 634.280,237.518 633.802,238.253 C633.434,238.805 633.397,239.025 633.287,239.245 C633.214,239.503 633.103,239.539 632.956,239.539 C632.883,239.539 632.736,239.466 632.736,239.282 C632.736,238.952 633.397,236.159 633.434,235.902 C633.508,235.718 633.655,235.314 633.766,235.314 C633.986,235.314 634.317,235.571 635.200,235.681 C636.119,235.792 637.369,235.828 637.737,235.828 L649.939,235.828 C650.999,235.828 651.734,235.755 652.249,235.681 C652.728,235.608 653.028,235.535 653.175,235.535 C653.322,235.535 653.322,235.718 653.322,235.902 C653.322,236.857 653.212,239.099 653.212,239.466 C653.212,239.723 653.064,239.870 652.911,239.870 C652.764,239.870 652.691,239.760 652.654,239.319 L652.617,238.988 C652.507,238.033 651.808,237.335 648.726,237.261 L644.687,237.188 L644.687,250.305 ZM659.984,238.070 C659.911,237.004 659.653,236.526 658.954,236.379 C658.587,236.306 658.182,236.269 657.961,236.269 C657.814,236.269 657.704,236.122 657.704,236.012 C657.704,235.828 657.851,235.755 658.219,235.755 C659.285,235.755 661.308,235.828 661.491,235.828 C661.638,235.828 663.735,235.755 664.728,235.755 C665.095,235.755 665.242,235.828 665.242,236.012 C665.242,236.122 665.095,236.269 664.985,236.269 C664.764,236.269 664.544,236.269 664.176,236.343 C663.294,236.526 663.110,236.967 663.036,238.070 C662.999,239.062 662.999,239.943 662.999,244.794 L662.999,250.305 C662.999,253.318 662.999,255.780 663.146,257.066 C663.257,257.985 663.367,258.572 664.323,258.719 C664.801,258.793 665.499,258.866 665.794,258.866 C665.977,258.866 666.051,259.013 666.051,259.123 C666.051,259.270 665.904,259.381 665.536,259.381 C663.735,259.381 661.638,259.270 661.491,259.270 C661.308,259.270 659.285,259.381 658.292,259.381 C657.961,259.381 657.778,259.307 657.778,259.123 C657.778,259.013 657.851,258.866 658.035,258.866 C658.329,258.866 658.734,258.793 659.028,258.719 C659.653,258.572 659.763,257.985 659.874,257.066 C660.021,255.780 660.058,253.318 660.058,250.305 L660.058,244.794 C660.058,239.943 660.058,239.062 659.984,238.070 ZM682.819,259.785 C673.957,259.785 670.170,253.134 670.170,247.512 C670.170,242.479 674.068,235.314 683.003,235.314 C690.284,235.314 695.799,239.760 695.799,247.035 C695.799,254.016 690.615,259.785 682.819,259.785 ZM682.819,236.490 C677.414,236.490 673.516,239.870 673.516,246.668 C673.516,253.943 677.892,258.499 683.739,258.499 C686.644,258.499 692.490,256.956 692.490,247.917 C692.490,240.421 687.930,236.490 682.819,236.490 ZM661.430,329.060 C661.869,329.060 662.132,329.324 662.132,329.937 C662.132,330.550 662.132,331.603 662.395,332.655 C663.623,338.090 669.415,340.019 674.591,340.019 C682.224,340.019 686.173,335.723 686.173,330.112 C686.173,324.764 683.277,322.222 676.433,317.137 L672.924,314.507 C664.588,308.282 661.869,303.723 661.869,298.551 C661.869,289.784 668.800,284.523 678.978,284.523 C682.049,284.523 685.119,284.962 686.962,285.488 C688.454,285.839 689.068,285.839 689.682,285.839 C690.296,285.839 690.472,285.926 690.472,286.364 C690.472,286.715 690.121,289.155 690.121,294.240 C690.121,295.380 690.033,295.906 689.506,295.833 C688.980,295.833 688.892,295.482 688.805,294.868 C688.717,293.992 688.103,291.976 687.664,291.187 C687.138,290.310 684.593,287.504 677.662,287.504 C672.046,287.504 667.396,290.310 667.396,295.570 C667.396,300.305 669.765,303.022 677.399,308.195 L679.592,309.685 C688.980,316.085 692.227,321.258 692.227,327.657 C692.227,332.041 690.560,336.775 685.032,340.370 C681.786,342.474 676.960,343.000 672.748,343.000 C669.151,343.000 664.677,342.474 661.518,340.983 C660.465,340.458 660.377,340.194 660.377,338.178 C660.377,334.496 660.728,331.515 660.816,330.288 C660.816,329.499 660.991,329.060 661.430,329.060 ZM699.661,258.866 C699.918,258.866 700.507,258.830 700.984,258.683 C701.793,258.462 701.904,257.617 701.904,254.788 L701.904,236.894 C701.904,235.645 702.088,235.314 702.345,235.314 C702.713,235.314 703.265,235.939 703.596,236.269 C704.110,236.783 708.811,241.781 713.812,246.924 C717.005,250.231 720.461,253.943 721.454,254.972 L721.124,239.319 C721.087,237.298 720.903,236.600 719.910,236.416 C719.321,236.306 718.586,236.269 718.329,236.269 C718.108,236.269 718.071,236.086 718.071,235.975 C718.071,235.792 718.329,235.755 718.696,235.755 C720.167,235.755 721.712,235.828 722.079,235.828 C722.453,235.828 723.520,235.755 724.843,235.755 C725.174,235.755 725.432,235.792 725.432,235.975 C725.432,236.086 725.285,236.269 725.064,236.269 C724.917,236.269 724.659,236.269 724.292,236.343 C723.226,236.563 723.152,237.188 723.152,239.062 L723.079,257.360 C723.079,259.417 723.041,259.601 722.821,259.601 C722.490,259.601 722.153,259.344 720.351,257.691 C720.020,257.396 715.350,252.804 711.936,249.240 C708.186,245.308 704.551,241.487 703.559,240.384 L703.926,255.119 C704.000,257.691 704.294,258.462 705.170,258.683 C705.759,258.830 706.495,258.866 706.789,258.866 C706.936,258.866 707.046,258.977 707.046,259.123 C707.046,259.307 706.825,259.381 706.458,259.381 C704.625,259.381 703.338,259.270 703.044,259.270 C702.750,259.270 701.389,259.381 699.918,259.381 C699.587,259.381 699.403,259.344 699.403,259.123 C699.403,258.977 699.514,258.866 699.661,258.866 ZM704.774,284.611 C705.300,284.611 706.089,285.225 708.196,285.488 C710.389,285.751 713.372,285.839 714.249,285.839 L743.364,285.839 C745.894,285.839 747.649,285.663 748.877,285.488 C750.018,285.313 750.735,285.137 751.086,285.137 C751.436,285.137 751.436,285.576 751.436,286.014 C751.436,288.293 751.173,293.641 751.173,294.518 C751.173,295.132 750.822,295.482 750.457,295.482 C750.106,295.482 749.930,295.219 749.843,294.167 L749.754,293.379 C749.492,291.099 747.824,289.433 740.469,289.258 L730.832,289.082 L730.832,320.381 C730.832,327.570 730.832,333.444 731.183,336.512 C731.446,338.704 731.797,340.107 734.152,340.458 C735.204,340.632 736.959,340.808 737.661,340.808 C738.188,340.808 738.275,341.159 738.275,341.422 C738.275,341.773 737.925,342.036 737.047,342.036 C732.836,342.036 727.937,341.773 727.498,341.773 C727.147,341.773 721.795,342.036 719.514,342.036 C718.637,342.036 718.285,341.860 718.285,341.422 C718.285,341.159 718.461,340.896 718.900,340.896 C719.601,340.896 720.479,340.721 721.181,340.545 C722.760,340.194 723.199,338.704 723.462,336.512 C723.813,333.444 723.813,327.570 723.813,320.381 L723.813,289.082 L712.670,289.258 C707.845,289.346 706.002,289.871 704.861,291.625 C703.984,292.940 703.896,293.466 703.633,293.992 C703.457,294.605 703.194,294.693 702.843,294.693 C702.668,294.693 702.317,294.518 702.317,294.080 C702.317,293.290 703.896,286.628 703.984,286.014 C704.159,285.576 704.510,284.611 704.774,284.611 ZM765.867,235.660 C773.043,235.660 778.479,240.042 778.479,247.212 C778.479,254.092 773.369,259.777 765.686,259.777 C756.952,259.777 753.220,253.223 753.220,247.682 C753.220,242.721 757.061,235.660 765.867,235.660 ZM766.592,258.510 C769.455,258.510 775.217,256.989 775.217,248.081 C775.217,240.694 770.723,236.819 765.686,236.819 C760.359,236.819 756.517,240.150 756.517,246.849 C756.517,254.020 760.829,258.510 766.592,258.510 ZM759.962,329.060 C760.401,329.060 760.664,329.324 760.664,329.937 C760.664,330.550 760.664,331.603 760.927,332.655 C762.155,338.090 767.946,340.019 773.123,340.019 C780.756,340.019 784.705,335.723 784.705,330.112 C784.705,324.764 781.809,322.222 774.966,317.137 L771.456,314.507 C763.120,308.282 760.401,303.723 760.401,298.551 C760.401,289.784 767.332,284.523 777.510,284.523 C780.581,284.523 783.651,284.962 785.494,285.488 C786.986,285.839 787.600,285.839 788.214,285.839 C788.828,285.839 789.004,285.926 789.004,286.364 C789.004,286.715 788.653,289.155 788.653,294.240 C788.653,295.380 788.565,295.906 788.038,295.833 C787.512,295.833 787.424,295.482 787.337,294.868 C787.249,293.992 786.635,291.976 786.196,291.187 C785.670,290.310 783.125,287.504 776.194,287.504 C770.578,287.504 765.928,290.310 765.928,295.570 C765.928,300.305 768.297,303.022 775.931,308.195 L778.124,309.685 C787.512,316.085 790.759,321.258 790.759,327.657 C790.759,332.041 789.092,336.775 783.564,340.370 C780.318,342.474 775.492,343.000 771.280,343.000 C767.683,343.000 763.209,342.474 760.050,340.983 C758.997,340.458 758.909,340.194 758.909,338.178 C758.909,334.496 759.260,331.515 759.348,330.288 C759.348,329.499 759.523,329.060 759.962,329.060 ZM786.560,259.270 C786.379,259.270 784.386,259.379 783.408,259.379 C783.082,259.379 782.901,259.307 782.901,259.126 C782.901,259.017 782.973,258.872 783.154,258.872 C783.444,258.872 783.842,258.764 784.133,258.727 C784.749,258.618 784.821,258.003 784.966,257.098 C785.147,255.830 785.147,253.404 785.147,250.435 L785.147,245.003 C785.147,240.223 785.147,239.354 785.075,238.376 C785.002,237.326 784.821,236.819 783.770,236.674 C783.516,236.638 782.973,236.601 782.683,236.601 C782.574,236.601 782.429,236.457 782.429,236.348 C782.429,236.167 782.574,236.095 782.937,236.095 C784.386,236.095 786.379,236.167 786.560,236.167 C787.177,236.167 794.098,236.203 794.823,236.167 C795.439,236.131 795.983,236.131 796.273,236.022 C796.454,235.986 796.599,235.841 796.708,235.841 C796.853,235.841 796.925,235.986 796.925,236.131 C796.925,236.348 796.780,236.711 796.671,237.579 C796.635,237.869 796.599,239.245 796.526,239.607 C796.490,239.752 796.382,239.933 796.237,239.933 C796.092,239.933 795.983,239.788 795.983,239.571 C795.983,239.318 795.875,238.811 795.693,238.412 C795.512,238.014 794.751,237.507 793.519,237.507 L788.300,237.435 C788.119,237.435 788.047,237.507 788.047,237.760 L788.047,246.162 C788.047,246.343 788.047,246.451 788.264,246.451 L792.613,246.415 C793.157,246.415 793.627,246.415 794.062,246.379 C794.823,246.307 795.258,246.198 795.548,245.836 C795.693,245.654 795.838,245.510 795.947,245.510 C796.092,245.510 796.128,245.618 796.128,245.764 C796.128,245.945 795.911,246.451 795.838,247.465 C795.766,248.081 795.730,249.312 795.730,249.529 C795.730,249.819 795.657,250.145 795.439,250.145 C795.258,250.145 795.222,250.000 795.222,249.856 C795.186,249.529 795.150,249.095 795.005,248.733 C794.860,248.298 794.352,247.900 793.374,247.755 C792.576,247.646 788.807,247.682 788.264,247.682 C788.083,247.682 788.047,247.755 788.047,247.972 L788.047,250.435 C788.047,253.477 788.047,255.903 788.191,257.098 C788.300,258.003 788.481,258.582 789.351,258.727 C789.822,258.800 790.510,258.872 790.801,258.872 C790.982,258.872 791.054,259.017 791.054,259.126 C791.054,259.270 790.909,259.379 790.547,259.379 C788.771,259.379 786.706,259.270 786.560,259.270 Z"/>
</svg>